<?xml version="1.0" encoding="utf-8"?>
<!-- Generator: Adobe Illustrator 24.1.1, SVG Export Plug-In . SVG Version: 6.00 Build 0)  -->
<svg version="1.1" id="Layer_1" xmlns="http://www.w3.org/2000/svg" xmlns:xlink="http://www.w3.org/1999/xlink" x="0px" y="0px"
	 viewBox="0 0 512 512" style="enable-background:new 0 0 512 512;" xml:space="preserve">
<style type="text/css">
	.st0{fill:#F0F5FA;stroke:#F2F2F2;stroke-width:6.248;stroke-miterlimit:10;}
	.st1{fill:#FFFFFF;stroke:#FFFFFF;stroke-width:1.0114;stroke-miterlimit:10;}
	.st2{fill:none;stroke:#1B1464;stroke-width:10;stroke-miterlimit:10;}
	.st3{fill:#2E3192;stroke:#2E3192;stroke-width:3;stroke-miterlimit:10;}
	.st4{fill:#F2F2F2;}
	.st5{fill:none;stroke:#000000;stroke-miterlimit:10;}
	.st6{fill:#FFFFFF;stroke:#FFFFFF;stroke-miterlimit:10;}
</style>
<circle class="st0" cx="260" cy="260" r="178.5"/>
<path class="st1" d="M193.8,94.18L259,249.77l-65.2,176.05C122.03,396.35,76.93,323.78,82,247.72
	C86.52,179.91,130.23,119.91,193.8,94.18z"/>
<path class="st2" d="M103,303l43.05-94.49c0.66-1.45,2.67-1.58,3.52-0.23l30.09,48.33c0.82,1.32,2.77,1.24,3.48-0.15l53.02-103.83
	c0.71-1.38,2.65-1.47,3.48-0.15l48.96,78.01c0.74,1.18,2.42,1.26,3.28,0.16l35.72-46.11c0.71-0.91,2.04-1.04,2.9-0.28l27.29,24
	c0.13,0.12,0.25,0.25,0.34,0.39L421,303"/>
<rect x="138.77" y="264.5" class="st3" width="23.5" height="52"/>
<rect x="177.75" y="285" class="st3" width="23.5" height="31.68"/>
<rect x="216.73" y="225" class="st3" width="23.5" height="91.68"/>
<rect x="253.88" y="238" class="st3" width="23.5" height="78.68"/>
<rect x="291.04" y="265" class="st3" width="23.5" height="51.68"/>
<rect x="327.51" y="229" class="st3" width="23.5" height="87.68"/>
<rect x="363.98" y="291" class="st3" width="23.5" height="25.68"/>
<g>
	<g>
		<path class="st4" d="M256.03,93.35c1.93,0,1.93-3,0-3C254.1,90.35,254.1,93.35,256.03,93.35L256.03,93.35z"/>
	</g>
</g>
<path class="st5" d="M150.52,405.93"/>
<path class="st6" d="M531.5,271.5"/>
</svg>
