<svg id="Layer_1" data-name="Layer 1" xmlns="http://www.w3.org/2000/svg" viewBox="0 0 484.37 488.37"><defs><style>.cls-1{fill:#f0f5fa;stroke:#f2f2f2;stroke-width:8.37px;}.cls-1,.cls-2,.cls-3,.cls-4,.cls-6,.cls-7{stroke-miterlimit:10;}.cls-2,.cls-7{fill:#fff;stroke:#fff;}.cls-2{stroke-width:1.35px;}.cls-3,.cls-6{fill:none;}.cls-3{stroke:#1b1464;stroke-width:13.39px;}.cls-4{fill:#2e3192;stroke:#2e3192;stroke-width:4.02px;}.cls-5{fill:#f2f2f2;}.cls-6{stroke:#000;}.cls-6,.cls-7{stroke-width:1.34px;}</style></defs><ellipse class="cls-1" cx="242.18" cy="244.18" rx="238" ry="240"/><path class="cls-2" d="M167,33.05,254,242.25,167,479C71.32,439.32,11.19,341.76,18,239.5,24,148.31,82.25,67.65,167,33.05Z" transform="translate(-13.1 -11.82)"/><path class="cls-3" d="M46,313.82l57.4-127a2.66,2.66,0,0,1,4.69-.31l40.12,65a2.66,2.66,0,0,0,4.64-.2l70.69-139.6a2.66,2.66,0,0,1,4.64-.21l65.28,104.89a2.64,2.64,0,0,0,4.36.22l47.64-62a2.63,2.63,0,0,1,3.86-.37l36.39,32.27a2.34,2.34,0,0,1,.46.53L470,313.82" transform="translate(-13.1 -11.82)"/><rect class="cls-4" x="80.55" y="250.23" width="31.33" height="69.92"/><rect class="cls-4" x="132.52" y="277.8" width="31.33" height="42.59"/><rect class="cls-4" x="184.49" y="197.12" width="31.33" height="123.26"/><rect class="cls-4" x="234.03" y="214.6" width="31.33" height="105.78"/><rect class="cls-4" x="283.57" y="250.91" width="31.33" height="69.48"/><rect class="cls-4" x="332.19" y="202.5" width="31.33" height="117.88"/><rect class="cls-4" x="380.82" y="285.86" width="31.33" height="34.52"/><path class="cls-5" d="M250,31.93c2.59,0,2.59-4,0-4s-2.59,4,0,4Z" transform="translate(-13.1 -11.82)"/><path class="cls-6" d="M109.31,452.21" transform="translate(-13.1 -11.82)"/><path class="cls-7" d="M617.28,271.46" transform="translate(-13.1 -11.82)"/></svg>